<svg xmlns="http://www.w3.org/2000/svg" xmlns:xlink="http://www.w3.org/1999/xlink" version="1.1" class="marks" width="606" height="250" viewBox="0 0 606 250"><rect width="606" height="250" fill="white"/><g fill="none" stroke-miterlimit="10" transform="translate(100,22)"><g class="mark-group role-frame root" role="graphics-object" aria-roledescription="group mark container"><g transform="translate(0,0)"><path class="background" aria-hidden="true" d="M0.5,0.5h500v191h-500Z" stroke="#ddd"/><g><g class="mark-group role-axis" role="graphics-symbol" aria-roledescription="axis" aria-label="X-axis for a linear scale with values from 0 to 120"><g transform="translate(0.5,191.5)"><path class="background" aria-hidden="true" d="M0,0h0v0h0Z" pointer-events="none"/><g><g class="mark-rule role-axis-grid" pointer-events="none"><line transform="translate(0,0)" x2="0" y2="-191" stroke="#ddd" stroke-width="1" opacity="1"/><line transform="translate(42,0)" x2="0" y2="-191" stroke="#ddd" stroke-width="1" opacity="1"/><line transform="translate(83,0)" x2="0" y2="-191" stroke="#ddd" stroke-width="1" opacity="1"/><line transform="translate(125,0)" x2="0" y2="-191" stroke="#ddd" stroke-width="1" opacity="1"/><line transform="translate(167,0)" x2="0" y2="-191" stroke="#ddd" stroke-width="1" opacity="1"/><line transform="translate(208,0)" x2="0" y2="-191" stroke="#ddd" stroke-width="1" opacity="1"/><line transform="translate(250,0)" x2="0" y2="-191" stroke="#ddd" stroke-width="1" opacity="1"/><line transform="translate(292,0)" x2="0" y2="-191" stroke="#ddd" stroke-width="1" opacity="1"/><line transform="translate(333,0)" x2="0" y2="-191" stroke="#ddd" stroke-width="1" opacity="1"/><line transform="translate(375,0)" x2="0" y2="-191" stroke="#ddd" stroke-width="1" opacity="1"/><line transform="translate(417,0)" x2="0" y2="-191" stroke="#ddd" stroke-width="1" opacity="1"/><line transform="translate(458,0)" x2="0" y2="-191" stroke="#ddd" stroke-width="1" opacity="1"/><line transform="translate(500,0)" x2="0" y2="-191" stroke="#ddd" stroke-width="1" opacity="1"/></g></g><path class="foreground" aria-hidden="true" d="" pointer-events="none" display="none"/></g></g><g class="mark-group role-axis" role="graphics-symbol" aria-roledescription="axis" aria-label="X-axis titled 'Memory (GB)' for a linear scale with values from 0 to 120"><g transform="translate(0.5,191.5)"><path class="background" aria-hidden="true" d="M0,0h0v0h0Z" pointer-events="none"/><g><g class="mark-rule role-axis-tick" pointer-events="none"><line transform="translate(0,0)" x2="0" y2="5" stroke="#888" stroke-width="1" opacity="1"/><line transform="translate(42,0)" x2="0" y2="5" stroke="#888" stroke-width="1" opacity="1"/><line transform="translate(83,0)" x2="0" y2="5" stroke="#888" stroke-width="1" opacity="1"/><line transform="translate(125,0)" x2="0" y2="5" stroke="#888" stroke-width="1" opacity="1"/><line transform="translate(167,0)" x2="0" y2="5" stroke="#888" stroke-width="1" opacity="1"/><line transform="translate(208,0)" x2="0" y2="5" stroke="#888" stroke-width="1" opacity="1"/><line transform="translate(250,0)" x2="0" y2="5" stroke="#888" stroke-width="1" opacity="1"/><line transform="translate(292,0)" x2="0" y2="5" stroke="#888" stroke-width="1" opacity="1"/><line transform="translate(333,0)" x2="0" y2="5" stroke="#888" stroke-width="1" opacity="1"/><line transform="translate(375,0)" x2="0" y2="5" stroke="#888" stroke-width="1" opacity="1"/><line transform="translate(417,0)" x2="0" y2="5" stroke="#888" stroke-width="1" opacity="1"/><line transform="translate(458,0)" x2="0" y2="5" stroke="#888" stroke-width="1" opacity="1"/><line transform="translate(500,0)" x2="0" y2="5" stroke="#888" stroke-width="1" opacity="1"/></g><g class="mark-text role-axis-label" pointer-events="none"><text text-anchor="start" transform="translate(0,15)" font-family="sans-serif" font-size="10px" fill="#000" opacity="1">0</text><text text-anchor="middle" transform="translate(41.666666666666664,15)" font-family="sans-serif" font-size="10px" fill="#000" opacity="1">10</text><text text-anchor="middle" transform="translate(83.33333333333333,15)" font-family="sans-serif" font-size="10px" fill="#000" opacity="1">20</text><text text-anchor="middle" transform="translate(125,15)" font-family="sans-serif" font-size="10px" fill="#000" opacity="1">30</text><text text-anchor="middle" transform="translate(166.66666666666666,15)" font-family="sans-serif" font-size="10px" fill="#000" opacity="1">40</text><text text-anchor="middle" transform="translate(208.33333333333334,15)" font-family="sans-serif" font-size="10px" fill="#000" opacity="1">50</text><text text-anchor="middle" transform="translate(250,15)" font-family="sans-serif" font-size="10px" fill="#000" opacity="1">60</text><text text-anchor="middle" transform="translate(291.6666666666667,15)" font-family="sans-serif" font-size="10px" fill="#000" opacity="1">70</text><text text-anchor="middle" transform="translate(333.3333333333333,15)" font-family="sans-serif" font-size="10px" fill="#000" opacity="1">80</text><text text-anchor="middle" transform="translate(375,15)" font-family="sans-serif" font-size="10px" fill="#000" opacity="1">90</text><text text-anchor="middle" transform="translate(416.6666666666667,15)" font-family="sans-serif" font-size="10px" fill="#000" opacity="1">100</text><text text-anchor="middle" transform="translate(458.3333333333333,15)" font-family="sans-serif" font-size="10px" fill="#000" opacity="1">110</text><text text-anchor="end" transform="translate(500,15)" font-family="sans-serif" font-size="10px" fill="#000" opacity="1">120</text></g><g class="mark-rule role-axis-domain" pointer-events="none"><line transform="translate(0,0)" x2="500" y2="0" stroke="#888" stroke-width="1" opacity="1"/></g><g class="mark-text role-axis-title" pointer-events="none"><text text-anchor="middle" transform="translate(250,30)" font-family="sans-serif" font-size="11px" font-weight="bold" fill="#000" opacity="1">Memory (GB)</text></g></g><path class="foreground" aria-hidden="true" d="" pointer-events="none" display="none"/></g></g><g class="mark-group role-axis" role="graphics-symbol" aria-roledescription="axis" aria-label="Y-axis titled 'Method' for a discrete scale with 4 values: connector-agent, pandas, modin, dask"><g transform="translate(0.5,0.5)"><path class="background" aria-hidden="true" d="M0,0h0v0h0Z" pointer-events="none"/><g><g class="mark-rule role-axis-tick" pointer-events="none"><line transform="translate(0,23)" x2="-5" y2="0" stroke="#888" stroke-width="1" opacity="1"/><line transform="translate(0,71)" x2="-5" y2="0" stroke="#888" stroke-width="1" opacity="1"/><line transform="translate(0,119)" x2="-5" y2="0" stroke="#888" stroke-width="1" opacity="1"/><line transform="translate(0,167)" x2="-5" y2="0" stroke="#888" stroke-width="1" opacity="1"/></g><g class="mark-text role-axis-label" pointer-events="none"><text text-anchor="end" transform="translate(-7,26.375000000000004)" font-family="sans-serif" font-size="10px" fill="#000" opacity="1">connector-agent</text><text text-anchor="end" transform="translate(-7,74.125)" font-family="sans-serif" font-size="10px" fill="#000" opacity="1">pandas</text><text text-anchor="end" transform="translate(-7,121.875)" font-family="sans-serif" font-size="10px" fill="#000" opacity="1">modin</text><text text-anchor="end" transform="translate(-7,169.625)" font-family="sans-serif" font-size="10px" fill="#000" opacity="1">dask</text></g><g class="mark-rule role-axis-domain" pointer-events="none"><line transform="translate(0,0)" x2="0" y2="191" stroke="#888" stroke-width="1" opacity="1"/></g><g class="mark-text role-axis-title" pointer-events="none"><text text-anchor="middle" transform="translate(-83.2705078125,95.5) rotate(-90) translate(0,-2)" font-family="sans-serif" font-size="11px" font-weight="bold" fill="#000" opacity="1">Method</text></g></g><path class="foreground" aria-hidden="true" d="" pointer-events="none" display="none"/></g></g><g class="mark-rect role-mark marks" role="graphics-symbol" aria-roledescription="rect mark container"><path d="M0,2.387500000000003h150.71145v42.975h-150.71145Z" fill="#4c78a8"/><path d="M0,50.1375h379.19933333333336v42.975h-379.19933333333336Z" fill="#72b7b2"/><path d="M0,145.6375h477.01355625v42.975h-477.01355625Z" fill="#f58518"/><path d="M0,97.8875h416.6666666666667v42.975h-416.6666666666667Z" fill="#e45756"/></g><g class="mark-group role-title"><g transform="translate(250,-17)"><path class="background" aria-hidden="true" d="M0,0h0v0h0Z" pointer-events="none"/><g><g class="mark-text role-title-text" role="graphics-symbol" aria-roledescription="title" aria-label="Title text 'read_sql on 4 cores'" pointer-events="none"><text text-anchor="middle" transform="translate(0,10)" font-family="sans-serif" font-size="13px" font-weight="bold" fill="#000" opacity="1">read_sql on 4 cores</text></g></g><path class="foreground" aria-hidden="true" d="" pointer-events="none" display="none"/></g></g></g><path class="foreground" aria-hidden="true" d="" display="none"/></g></g></g></svg>