<svg xmlns="http://www.w3.org/2000/svg" xmlns:xlink="http://www.w3.org/1999/xlink" version="1.1" class="marks" width="592" height="264" viewBox="0 0 592 264"><rect width="592" height="264" fill="white"/><g fill="none" stroke-miterlimit="10" transform="translate(86,27)"><g class="mark-group role-frame root" role="graphics-object" aria-roledescription="group mark container"><g transform="translate(0,0)"><path class="background" aria-hidden="true" d="M0.5,0.5h500v191h-500Z" stroke="#ddd"/><g><g class="mark-group role-axis" role="graphics-symbol" aria-roledescription="axis" aria-label="X-axis for a linear scale with values from 0 to 1,400"><g transform="translate(0.5,191.5)"><path class="background" aria-hidden="true" d="M0,0h0v0h0Z" pointer-events="none"/><g><g class="mark-rule role-axis-grid" pointer-events="none"><line transform="translate(0,0)" x2="0" y2="-191" stroke="#ddd" stroke-width="1" opacity="1"/><line transform="translate(36,0)" x2="0" y2="-191" stroke="#ddd" stroke-width="1" opacity="1"/><line transform="translate(71,0)" x2="0" y2="-191" stroke="#ddd" stroke-width="1" opacity="1"/><line transform="translate(107,0)" x2="0" y2="-191" stroke="#ddd" stroke-width="1" opacity="1"/><line transform="translate(143,0)" x2="0" y2="-191" stroke="#ddd" stroke-width="1" opacity="1"/><line transform="translate(179,0)" x2="0" y2="-191" stroke="#ddd" stroke-width="1" opacity="1"/><line transform="translate(214,0)" x2="0" y2="-191" stroke="#ddd" stroke-width="1" opacity="1"/><line transform="translate(250,0)" x2="0" y2="-191" stroke="#ddd" stroke-width="1" opacity="1"/><line transform="translate(286,0)" x2="0" y2="-191" stroke="#ddd" stroke-width="1" opacity="1"/><line transform="translate(321,0)" x2="0" y2="-191" stroke="#ddd" stroke-width="1" opacity="1"/><line transform="translate(357,0)" x2="0" y2="-191" stroke="#ddd" stroke-width="1" opacity="1"/><line transform="translate(393,0)" x2="0" y2="-191" stroke="#ddd" stroke-width="1" opacity="1"/><line transform="translate(429,0)" x2="0" y2="-191" stroke="#ddd" stroke-width="1" opacity="1"/><line transform="translate(464,0)" x2="0" y2="-191" stroke="#ddd" stroke-width="1" opacity="1"/><line transform="translate(500,0)" x2="0" y2="-191" stroke="#ddd" stroke-width="1" opacity="1"/></g></g><path class="foreground" aria-hidden="true" d="" pointer-events="none" display="none"/></g></g><g class="mark-group role-axis" role="graphics-symbol" aria-roledescription="axis" aria-label="X-axis titled 'Time (s)' for a linear scale with values from 0 to 1,400"><g transform="translate(0.5,191.5)"><path class="background" aria-hidden="true" d="M0,0h0v0h0Z" pointer-events="none"/><g><g class="mark-rule role-axis-tick" pointer-events="none"><line transform="translate(0,0)" x2="0" y2="5" stroke="#888" stroke-width="1" opacity="1"/><line transform="translate(36,0)" x2="0" y2="5" stroke="#888" stroke-width="1" opacity="1"/><line transform="translate(71,0)" x2="0" y2="5" stroke="#888" stroke-width="1" opacity="1"/><line transform="translate(107,0)" x2="0" y2="5" stroke="#888" stroke-width="1" opacity="1"/><line transform="translate(143,0)" x2="0" y2="5" stroke="#888" stroke-width="1" opacity="1"/><line transform="translate(179,0)" x2="0" y2="5" stroke="#888" stroke-width="1" opacity="1"/><line transform="translate(214,0)" x2="0" y2="5" stroke="#888" stroke-width="1" opacity="1"/><line transform="translate(250,0)" x2="0" y2="5" stroke="#888" stroke-width="1" opacity="1"/><line transform="translate(286,0)" x2="0" y2="5" stroke="#888" stroke-width="1" opacity="1"/><line transform="translate(321,0)" x2="0" y2="5" stroke="#888" stroke-width="1" opacity="1"/><line transform="translate(357,0)" x2="0" y2="5" stroke="#888" stroke-width="1" opacity="1"/><line transform="translate(393,0)" x2="0" y2="5" stroke="#888" stroke-width="1" opacity="1"/><line transform="translate(429,0)" x2="0" y2="5" stroke="#888" stroke-width="1" opacity="1"/><line transform="translate(464,0)" x2="0" y2="5" stroke="#888" stroke-width="1" opacity="1"/><line transform="translate(500,0)" x2="0" y2="5" stroke="#888" stroke-width="1" opacity="1"/></g><g class="mark-text role-axis-label" pointer-events="none"><text text-anchor="start" transform="translate(0,18)" font-family="sans-serif" font-size="14px" fill="#000" opacity="1">0</text><text text-anchor="middle" transform="translate(35.714285714285715,18)" font-family="sans-serif" font-size="14px" fill="#000" opacity="0">100</text><text text-anchor="middle" transform="translate(71.42857142857143,18)" font-family="sans-serif" font-size="14px" fill="#000" opacity="1">200</text><text text-anchor="middle" transform="translate(107.14285714285714,18)" font-family="sans-serif" font-size="14px" fill="#000" opacity="0">300</text><text text-anchor="middle" transform="translate(142.85714285714286,18)" font-family="sans-serif" font-size="14px" fill="#000" opacity="1">400</text><text text-anchor="middle" transform="translate(178.57142857142858,18)" font-family="sans-serif" font-size="14px" fill="#000" opacity="0">500</text><text text-anchor="middle" transform="translate(214.28571428571428,18)" font-family="sans-serif" font-size="14px" fill="#000" opacity="1">600</text><text text-anchor="middle" transform="translate(250,18)" font-family="sans-serif" font-size="14px" fill="#000" opacity="0">700</text><text text-anchor="middle" transform="translate(285.7142857142857,18)" font-family="sans-serif" font-size="14px" fill="#000" opacity="1">800</text><text text-anchor="middle" transform="translate(321.42857142857144,18)" font-family="sans-serif" font-size="14px" fill="#000" opacity="0">900</text><text text-anchor="middle" transform="translate(357.14285714285717,18)" font-family="sans-serif" font-size="14px" fill="#000" opacity="1">1,000</text><text text-anchor="middle" transform="translate(392.85714285714283,18)" font-family="sans-serif" font-size="14px" fill="#000" opacity="0">1,100</text><text text-anchor="middle" transform="translate(428.57142857142856,18)" font-family="sans-serif" font-size="14px" fill="#000" opacity="1">1,200</text><text text-anchor="middle" transform="translate(464.2857142857143,18)" font-family="sans-serif" font-size="14px" fill="#000" opacity="0">1,300</text><text text-anchor="end" transform="translate(500,18)" font-family="sans-serif" font-size="14px" fill="#000" opacity="1">1,400</text></g><g class="mark-rule role-axis-domain" pointer-events="none"><line transform="translate(0,0)" x2="500" y2="0" stroke="#888" stroke-width="1" opacity="1"/></g><g class="mark-text role-axis-title" pointer-events="none"><text text-anchor="middle" transform="translate(250,38)" font-family="sans-serif" font-size="16px" font-weight="bold" fill="#000" opacity="1">Time (s)</text></g></g><path class="foreground" aria-hidden="true" d="" pointer-events="none" display="none"/></g></g><g class="mark-group role-axis" role="graphics-symbol" aria-roledescription="axis" aria-label="Y-axis for a discrete scale with 4 values: ConnectorX, Modin, Pandas, Dask"><g transform="translate(0.5,0.5)"><path class="background" aria-hidden="true" d="M0,0h0v0h0Z" pointer-events="none"/><g><g class="mark-rule role-axis-tick" pointer-events="none"><line transform="translate(0,23)" x2="-5" y2="0" stroke="#888" stroke-width="1" opacity="1"/><line transform="translate(0,71)" x2="-5" y2="0" stroke="#888" stroke-width="1" opacity="1"/><line transform="translate(0,119)" x2="-5" y2="0" stroke="#888" stroke-width="1" opacity="1"/><line transform="translate(0,167)" x2="-5" y2="0" stroke="#888" stroke-width="1" opacity="1"/></g><g class="mark-text role-axis-label" pointer-events="none"><text text-anchor="end" transform="translate(-7,27.375000000000004)" font-family="sans-serif" font-size="14px" fill="#000" opacity="1">ConnectorX</text><text text-anchor="end" transform="translate(-7,75.125)" font-family="sans-serif" font-size="14px" fill="#000" opacity="1">Modin</text><text text-anchor="end" transform="translate(-7,122.875)" font-family="sans-serif" font-size="14px" fill="#000" opacity="1">Pandas</text><text text-anchor="end" transform="translate(-7,170.625)" font-family="sans-serif" font-size="14px" fill="#000" opacity="1">Dask</text></g><g class="mark-rule role-axis-domain" pointer-events="none"><line transform="translate(0,0)" x2="0" y2="191" stroke="#888" stroke-width="1" opacity="1"/></g></g><path class="foreground" aria-hidden="true" d="" pointer-events="none" display="none"/></g></g><g class="mark-rect role-mark marks" role="graphics-symbol" aria-roledescription="rect mark container"><path d="M0,2.387500000000003h44.19611178571429v42.975h-44.19611178571429Z" fill="#4c78a8"/><path d="M0,145.6375h485.14404761904757v42.975h-485.14404761904757Z" fill="#f58518"/><path d="M0,97.8875h440.55833333333334v42.975h-440.55833333333334Z" fill="#72b7b2"/><path d="M0,50.1375h141.92142857142855v42.975h-141.92142857142855Z" fill="#e45756"/></g><g class="mark-group role-title"><g transform="translate(250,-22)"><path class="background" aria-hidden="true" d="M0,0h0v0h0Z" pointer-events="none"/><g><g class="mark-text role-title-text" role="graphics-symbol" aria-roledescription="title" aria-label="Title text 'cx.read_sql (8.6 GB) on 4 cores'" pointer-events="none"><text text-anchor="middle" transform="translate(0,14)" font-family="sans-serif" font-size="18px" font-weight="bold" fill="#000" opacity="1">cx.read_sql (8.6 GB) on 4 cores</text></g></g><path class="foreground" aria-hidden="true" d="" pointer-events="none" display="none"/></g></g></g><path class="foreground" aria-hidden="true" d="" display="none"/></g></g></g></svg>